# xmcd
#
# Track frame offsets:
#	150
#	16017
#	36544
#	58450
#	81659
#	100174
#	127708
#
# Disc length: 2062 seconds
#
# Revision: 2
# Processed by: cddbd v1.5.2PL0 Copyright (c) Steve Scherf et al.
# Submitted via: audiograbber 1.83.01
#
DISCID=59080c07
DTITLE=Fugative - Hard2Beat Promo - Supafly
DYEAR=2009
DGENRE=Dance
TTITLE0=Supafly (Radio Edit)
TTITLE1=Supafly (A1 Bassline Remix)
TTITLE2=Supafly (Drumsound and Bassline Smith Remix)
TTITLE3=Supafly (Tek-One Remix)
TTITLE4=Supafly (Cookie Monsta Remix)
TTITLE5=Supafly (Static Shokx Remix)
TTITLE6=Supafly (Bass Slammers Remix)
EXTD=
EXTT0=
EXTT1=
EXTT2=
EXTT3=
EXTT4=
EXTT5=
EXTT6=
PLAYORDER=
